<?xml version="1.0" encoding="utf-8"?>
<!-- Generator: Adobe Illustrator 16.0.0, SVG Export Plug-In . SVG Version: 6.00 Build 0)  -->
<!DOCTYPE svg PUBLIC "-//W3C//DTD SVG 1.1//EN" "http://www.w3.org/Graphics/SVG/1.1/DTD/svg11.dtd">
<svg version="1.1" id="Layer_1" xmlns="http://www.w3.org/2000/svg" xmlns:xlink="http://www.w3.org/1999/xlink" x="0px" y="0px"
	 width="49.73px" height="77px" viewBox="0 0 49.73 77" enable-background="new 0 0 49.73 77" xml:space="preserve">
<path fill="#E0E2E1" d="M46.892,38.119C40.38,23.945,37.315,18.008,33.485,8.815c-3.321-7.971-6.5-8.808-8.378-8.808
	C25.023,0.007,24.941,0,24.865,0c-0.067,0-0.13,0.004-0.188,0.004c-1.611,0-5.049,0.691-8.433,8.811
	c-3.831,9.193-6.895,15.13-13.407,29.304C-3.673,52.292-0.034,77,24.865,77l0,0l0,0l0,0l0,0C49.765,77,53.404,52.292,46.892,38.119z
	"/>
</svg>
